# xmcd
#
# Track frame offsets:
#   150
#   18312
#   37998
#   56822
#   72645
#   85688
#   107240
#   124852
#   143234
#   160089
#   175922
#   197058
#   216854
#   234863
#   256164
#   275098
#   292974
#   318178
#   337408
#
# Disc length: 4796 seconds
#
# Revision: 1
# Processed by: cddbd v1.5.1PL0 Copyright (c) Steve Scherf et al.
# Submitted via: Media_Universe 3.0
#
DISCID=1d12ba13
DTITLE=Aretha Franklin - The Very Best Of
DYEAR=2003
DGENRE=Blues
TTITLE0=I Knew You Were Waiting For Me
TTITLE1=Through The Storm
TTITLE2=Willing To Forgive
TTITLE3=Let It Be
TTITLE4=Never Let Me Go
TTITLE5=Night Time Is The Right Time
TTITLE6=Call Me
TTITLE7=Drown In My Tears
TTITLE8=People Get Ready
TTITLE9=My Song
TTITLE10=Dark End Of The Street
TTITLE11=Today I Sing The Blues
TTITLE12=A Rose Is Still A Rose
TTITLE13=Who's Zoomin' Who?
TTITLE14=Freeway Of Love
TTITLE15=Day Dreaming
TTITLE16=Bridge Över Troubled Water
TTITLE17=Pink Cadillac
TTITLE18=Summertime
EXTD=EP
EXTT0=
EXTT1=
EXTT2=
EXTT3=
EXTT4=
EXTT5=
EXTT6=
EXTT7=
EXTT8=
EXTT9=
EXTT10=
EXTT11=
EXTT12=
EXTT13=
EXTT14=
EXTT15=
EXTT16=
EXTT17=
EXTT18=
PLAYORDER=
